<mxfile host="app.diagrams.net" modified="2022-07-19T14:59:08.598Z" agent="5.0 (Macintosh; Intel Mac OS X 10_15_7) AppleWebKit/537.36 (KHTML, like Gecko) Chrome/103.0.0.0 Safari/537.36" etag="P9hRcrbgqkns5zPc2062" version="20.1.1" type="github">
  <diagram id="vZCnPFbRwBjbUlZG4jyX" name="Page-1">
    <mxGraphModel dx="1650" dy="551" grid="1" gridSize="10" guides="1" tooltips="1" connect="1" arrows="1" fold="1" page="1" pageScale="1" pageWidth="827" pageHeight="1169" math="0" shadow="0">
      <root>
        <mxCell id="0" />
        <mxCell id="1" parent="0" />
        <mxCell id="PAfGWe5RCC_GLh6Q75po-1" value="UUID" style="rounded=1;whiteSpace=wrap;html=1;" vertex="1" parent="1">
          <mxGeometry x="70" y="210" width="120" height="60" as="geometry" />
        </mxCell>
        <mxCell id="PAfGWe5RCC_GLh6Q75po-20" value="" style="edgeStyle=orthogonalEdgeStyle;rounded=0;orthogonalLoop=1;jettySize=auto;html=1;" edge="1" parent="1" source="PAfGWe5RCC_GLh6Q75po-2" target="PAfGWe5RCC_GLh6Q75po-1">
          <mxGeometry relative="1" as="geometry" />
        </mxCell>
        <mxCell id="PAfGWe5RCC_GLh6Q75po-21" value="UUID needs to be on all environment" style="edgeLabel;html=1;align=center;verticalAlign=middle;resizable=0;points=[];" vertex="1" connectable="0" parent="PAfGWe5RCC_GLh6Q75po-20">
          <mxGeometry x="0.0741" y="-1" relative="1" as="geometry">
            <mxPoint as="offset" />
          </mxGeometry>
        </mxCell>
        <mxCell id="PAfGWe5RCC_GLh6Q75po-2" value="Montrell&#39;s Refactor" style="rounded=1;whiteSpace=wrap;html=1;" vertex="1" parent="1">
          <mxGeometry x="70" y="340" width="120" height="60" as="geometry" />
        </mxCell>
        <mxCell id="PAfGWe5RCC_GLh6Q75po-22" style="edgeStyle=orthogonalEdgeStyle;rounded=0;orthogonalLoop=1;jettySize=auto;html=1;exitX=0;exitY=0.5;exitDx=0;exitDy=0;entryX=1;entryY=0.5;entryDx=0;entryDy=0;" edge="1" parent="1" source="PAfGWe5RCC_GLh6Q75po-3" target="PAfGWe5RCC_GLh6Q75po-1">
          <mxGeometry relative="1" as="geometry" />
        </mxCell>
        <mxCell id="PAfGWe5RCC_GLh6Q75po-23" value="UUID needs to be on Prod" style="edgeLabel;html=1;align=center;verticalAlign=middle;resizable=0;points=[];" vertex="1" connectable="0" parent="PAfGWe5RCC_GLh6Q75po-22">
          <mxGeometry x="0.0807" y="-1" relative="1" as="geometry">
            <mxPoint x="13" as="offset" />
          </mxGeometry>
        </mxCell>
        <mxCell id="PAfGWe5RCC_GLh6Q75po-26" style="edgeStyle=orthogonalEdgeStyle;rounded=0;orthogonalLoop=1;jettySize=auto;html=1;exitX=1;exitY=0.5;exitDx=0;exitDy=0;entryX=0;entryY=0.5;entryDx=0;entryDy=0;dashed=1;" edge="1" parent="1" source="PAfGWe5RCC_GLh6Q75po-3" target="PAfGWe5RCC_GLh6Q75po-2">
          <mxGeometry relative="1" as="geometry">
            <Array as="points">
              <mxPoint x="520" y="240" />
              <mxPoint x="520" y="110" />
              <mxPoint x="20" y="110" />
              <mxPoint x="20" y="370" />
            </Array>
          </mxGeometry>
        </mxCell>
        <mxCell id="PAfGWe5RCC_GLh6Q75po-3" value="Courseware Assignment Options&lt;br&gt;(on staging)" style="rounded=1;whiteSpace=wrap;html=1;fillColor=#dae8fc;strokeColor=#FF0000;" vertex="1" parent="1">
          <mxGeometry x="380" y="210" width="120" height="60" as="geometry" />
        </mxCell>
        <mxCell id="PAfGWe5RCC_GLh6Q75po-5" value="In current release" style="rounded=1;whiteSpace=wrap;html=1;fillColor=#dae8fc;strokeColor=#6c8ebf;" vertex="1" parent="1">
          <mxGeometry x="570" y="30" width="120" height="60" as="geometry" />
        </mxCell>
        <mxCell id="PAfGWe5RCC_GLh6Q75po-14" style="edgeStyle=orthogonalEdgeStyle;rounded=0;orthogonalLoop=1;jettySize=auto;html=1;exitX=0;exitY=0.5;exitDx=0;exitDy=0;entryX=0.5;entryY=0;entryDx=0;entryDy=0;" edge="1" parent="1" source="PAfGWe5RCC_GLh6Q75po-6" target="PAfGWe5RCC_GLh6Q75po-1">
          <mxGeometry relative="1" as="geometry" />
        </mxCell>
        <mxCell id="PAfGWe5RCC_GLh6Q75po-18" value="UUID needs to be on Prod" style="edgeLabel;html=1;align=center;verticalAlign=middle;resizable=0;points=[];" vertex="1" connectable="0" parent="PAfGWe5RCC_GLh6Q75po-14">
          <mxGeometry x="-0.1699" y="-1" relative="1" as="geometry">
            <mxPoint x="35" y="1" as="offset" />
          </mxGeometry>
        </mxCell>
        <mxCell id="PAfGWe5RCC_GLh6Q75po-25" style="edgeStyle=orthogonalEdgeStyle;rounded=0;orthogonalLoop=1;jettySize=auto;html=1;exitX=0.5;exitY=0;exitDx=0;exitDy=0;entryX=0;entryY=0.5;entryDx=0;entryDy=0;dashed=1;" edge="1" parent="1" source="PAfGWe5RCC_GLh6Q75po-6" target="PAfGWe5RCC_GLh6Q75po-2">
          <mxGeometry relative="1" as="geometry">
            <Array as="points">
              <mxPoint x="440" y="110" />
              <mxPoint x="20" y="110" />
              <mxPoint x="20" y="370" />
            </Array>
          </mxGeometry>
        </mxCell>
        <mxCell id="PAfGWe5RCC_GLh6Q75po-27" value="Bug Fixes" style="edgeLabel;html=1;align=center;verticalAlign=middle;resizable=0;points=[];" vertex="1" connectable="0" parent="PAfGWe5RCC_GLh6Q75po-25">
          <mxGeometry x="0.4604" relative="1" as="geometry">
            <mxPoint as="offset" />
          </mxGeometry>
        </mxCell>
        <mxCell id="PAfGWe5RCC_GLh6Q75po-6" value="App linking in Assignment page to result book" style="rounded=1;whiteSpace=wrap;html=1;fillColor=#dae8fc;strokeColor=#FF3333;" vertex="1" parent="1">
          <mxGeometry x="380" y="130" width="120" height="60" as="geometry" />
        </mxCell>
        <mxCell id="PAfGWe5RCC_GLh6Q75po-8" value="LTI 1.3 Decoupling" style="rounded=1;whiteSpace=wrap;html=1;fillColor=#dae8fc;strokeColor=#6c8ebf;" vertex="1" parent="1">
          <mxGeometry x="380" y="290" width="120" height="60" as="geometry" />
        </mxCell>
        <mxCell id="PAfGWe5RCC_GLh6Q75po-9" value="LTI Role Mismatch" style="rounded=1;whiteSpace=wrap;html=1;fillColor=#dae8fc;strokeColor=#6c8ebf;" vertex="1" parent="1">
          <mxGeometry x="380" y="450" width="120" height="60" as="geometry" />
        </mxCell>
        <mxCell id="PAfGWe5RCC_GLh6Q75po-10" value="Blocked" style="rounded=1;whiteSpace=wrap;html=1;strokeColor=#FF0000;" vertex="1" parent="1">
          <mxGeometry x="570" y="100" width="120" height="60" as="geometry" />
        </mxCell>
        <mxCell id="PAfGWe5RCC_GLh6Q75po-11" value="Lots of tags" style="rounded=1;whiteSpace=wrap;html=1;fillColor=#dae8fc;strokeColor=#6c8ebf;" vertex="1" parent="1">
          <mxGeometry x="380" y="370" width="120" height="60" as="geometry" />
        </mxCell>
        <mxCell id="PAfGWe5RCC_GLh6Q75po-12" value="" style="endArrow=classic;html=1;rounded=0;" edge="1" parent="1">
          <mxGeometry width="50" height="50" relative="1" as="geometry">
            <mxPoint x="540" y="500" as="sourcePoint" />
            <mxPoint x="540" y="130" as="targetPoint" />
          </mxGeometry>
        </mxCell>
        <mxCell id="PAfGWe5RCC_GLh6Q75po-13" value="Order of priority" style="edgeLabel;html=1;align=center;verticalAlign=middle;resizable=0;points=[];" vertex="1" connectable="0" parent="PAfGWe5RCC_GLh6Q75po-12">
          <mxGeometry x="-0.1838" y="3" relative="1" as="geometry">
            <mxPoint x="3" y="11" as="offset" />
          </mxGeometry>
        </mxCell>
      </root>
    </mxGraphModel>
  </diagram>
</mxfile>
